<svg width="21" height="41" viewBox="0 0 21 41" fill="none" xmlns="http://www.w3.org/2000/svg">
<path d="M17.026 40.837C16.5903 40.8385 16.1597 40.7423 15.7661 40.5556C15.3724 40.3688 15.0255 40.0962 14.751 39.7578L0.663507 22.2578C0.234518 21.7359 0 21.0813 0 20.4057C0 19.7302 0.234518 19.0755 0.663507 18.5537L15.2468 1.05365C15.7419 0.458021 16.4533 0.0834494 17.2246 0.0123419C17.9958 -0.0587657 18.7637 0.179415 19.3593 0.674486C19.955 1.16956 20.3295 1.88097 20.4006 2.65221C20.4718 3.42345 20.2336 4.19135 19.7385 4.78699L6.701 20.4203L19.301 36.0537C19.6577 36.4818 19.8842 37.0031 19.9539 37.556C20.0235 38.1088 19.9333 38.67 19.694 39.1732C19.4547 39.6765 19.0762 40.1006 18.6034 40.3954C18.1306 40.6903 17.5832 40.8435 17.026 40.837Z" fill="#2C2C2C"/>
</svg>
