<svg width="63" height="46" viewBox="0 0 63 46" fill="none" xmlns="http://www.w3.org/2000/svg">
<path d="M61.426 11.0289C60.8074 10.5494 60.0562 10.241 59.2579 10.139C58.4597 10.0369 57.6467 10.1452 56.9116 10.4516L43.2333 16.0994L35.2858 2.79564C34.9059 2.17453 34.3556 1.658 33.6908 1.29865C33.026 0.939312 32.2705 0.75 31.5013 0.75C30.7321 0.75 29.9766 0.939312 29.3118 1.29865C28.647 1.658 28.0966 2.17453 27.7168 2.79564L19.7693 16.0994L6.09099 10.4516C5.35438 10.1456 4.54029 10.0372 3.74077 10.1384C2.94124 10.2397 2.18816 10.5466 1.56665 11.0244C0.945144 11.5023 0.479998 12.1321 0.223796 12.8426C-0.0324052 13.5532 -0.0694446 14.3161 0.116865 15.0451L6.98305 42.2299C7.11434 42.7562 7.35933 43.2522 7.70318 43.688C8.04703 44.1238 8.48258 44.4902 8.98344 44.7651C9.66153 45.142 10.4368 45.3415 11.2271 45.3424C11.6113 45.3418 11.9935 45.2911 12.3625 45.1918C24.8779 41.9788 38.0976 41.9788 50.6131 45.1918C51.7558 45.4708 52.9711 45.3173 53.9921 44.7651C54.496 44.4937 54.9339 44.1284 55.2782 43.692C55.6225 43.2557 55.8657 42.7578 55.9925 42.2299L62.8857 15.0451C63.0699 14.3159 63.0308 13.5533 62.7729 12.8436C62.5149 12.1339 62.0484 11.5053 61.426 11.0289Z" fill="#FFAA00"/>
</svg>
